STARTFONT 2.1
COMMENT Exported by Fony v1.4.7
FONT vladofont
SIZE 5 5 5
FONTBOUNDINGBOX 6 4 0 -5
STARTPROPERTIES 6
COPYRIGHT "Created with Fony 1.4.7"
RESOLUTION_X 5
RESOLUTION_Y 5
FONT_ASCENT 0
FONT_DESCENT 5
DEFAULT_CHAR 0
ENDPROPERTIES
CHARS 91
STARTCHAR 032
ENCODING 32
SWIDTH 432 0
DWIDTH 6 0
BBX 0 0 0 0
BITMAP
ENDCHAR
STARTCHAR 033
ENCODING 33
SWIDTH 432 0
DWIDTH 6 0
BBX 1 5 2 -5
BITMAP
80
80
80
00
80
ENDCHAR
STARTCHAR 034
ENCODING 34
SWIDTH 432 0
DWIDTH 6 0
BBX 3 2 1 -2
BITMAP
A0
A0
ENDCHAR
STARTCHAR 035
ENCODING 35
SWIDTH 432 0
DWIDTH 6 0
BBX 5 5 0 -5
BITMAP
50
D8
50
F8
50
ENDCHAR
STARTCHAR 036
ENCODING 36
SWIDTH 432 0
DWIDTH 6 0
BBX 5 5 0 -5
BITMAP
70
A0
70
28
70
ENDCHAR
STARTCHAR 037
ENCODING 37
SWIDTH 432 0
DWIDTH 6 0
BBX 5 5 0 -5
BITMAP
C8
D0
20
58
98
ENDCHAR
STARTCHAR 038
ENCODING 38
SWIDTH 432 0
DWIDTH 6 0
BBX 5 5 0 -5
BITMAP
60
90
68
90
68
ENDCHAR
STARTCHAR 039
ENCODING 39
SWIDTH 432 0
DWIDTH 6 0
BBX 1 2 1 -2
BITMAP
80
80
ENDCHAR
STARTCHAR 040
ENCODING 40
SWIDTH 432 0
DWIDTH 6 0
BBX 2 5 1 -5
BITMAP
40
80
80
80
40
ENDCHAR
STARTCHAR 041
ENCODING 41
SWIDTH 432 0
DWIDTH 6 0
BBX 2 5 2 -5
BITMAP
80
40
40
40
80
ENDCHAR
STARTCHAR 042
ENCODING 42
SWIDTH 432 0
DWIDTH 6 0
BBX 5 5 0 -5
BITMAP
A8
70
F8
70
A8
ENDCHAR
STARTCHAR 043
ENCODING 43
SWIDTH 432 0
DWIDTH 6 0
BBX 3 3 1 -4
BITMAP
40
E0
40
ENDCHAR
STARTCHAR 044
ENCODING 44
SWIDTH 432 0
DWIDTH 6 0
BBX 2 2 0 -5
BITMAP
40
80
ENDCHAR
STARTCHAR 045
ENCODING 45
SWIDTH 432 0
DWIDTH 6 0
BBX 3 1 1 -3
BITMAP
E0
ENDCHAR
STARTCHAR 046
ENCODING 46
SWIDTH 432 0
DWIDTH 6 0
BBX 1 1 1 -5
BITMAP
80
ENDCHAR
STARTCHAR 047
ENCODING 47
SWIDTH 432 0
DWIDTH 6 0
BBX 5 5 0 -5
BITMAP
08
10
20
40
80
ENDCHAR
STARTCHAR 048
ENCODING 48
SWIDTH 432 0
DWIDTH 6 0
BBX 5 5 0 -5
BITMAP
70
98
A8
C8
70
ENDCHAR
STARTCHAR 049
ENCODING 49
SWIDTH 432 0
DWIDTH 6 0
BBX 3 5 1 -5
BITMAP
40
C0
40
40
E0
ENDCHAR
STARTCHAR 050
ENCODING 50
SWIDTH 432 0
DWIDTH 6 0
BBX 5 5 0 -5
BITMAP
70
88
30
40
F8
ENDCHAR
STARTCHAR 051
ENCODING 51
SWIDTH 432 0
DWIDTH 6 0
BBX 4 5 1 -5
BITMAP
E0
10
60
10
E0
ENDCHAR
STARTCHAR 052
ENCODING 52
SWIDTH 432 0
DWIDTH 6 0
BBX 5 5 0 -5
BITMAP
10
30
50
F8
10
ENDCHAR
STARTCHAR 053
ENCODING 53
SWIDTH 432 0
DWIDTH 6 0
BBX 5 5 0 -5
BITMAP
F8
80
F0
08
F0
ENDCHAR
STARTCHAR 054
ENCODING 54
SWIDTH 432 0
DWIDTH 6 0
BBX 5 5 0 -5
BITMAP
70
80
F0
88
70
ENDCHAR
STARTCHAR 055
ENCODING 55
SWIDTH 432 0
DWIDTH 6 0
BBX 5 5 0 -5
BITMAP
F8
10
20
20
20
ENDCHAR
STARTCHAR 056
ENCODING 56
SWIDTH 432 0
DWIDTH 6 0
BBX 5 5 0 -5
BITMAP
70
88
70
88
70
ENDCHAR
STARTCHAR 057
ENCODING 57
SWIDTH 432 0
DWIDTH 6 0
BBX 5 5 0 -5
BITMAP
70
88
78
08
70
ENDCHAR
STARTCHAR 058
ENCODING 58
SWIDTH 432 0
DWIDTH 6 0
BBX 1 3 2 -4
BITMAP
80
00
80
ENDCHAR
STARTCHAR 059
ENCODING 59
SWIDTH 432 0
DWIDTH 6 0
BBX 2 5 1 -5
BITMAP
40
00
00
40
80
ENDCHAR
STARTCHAR 060
ENCODING 60
SWIDTH 432 0
DWIDTH 6 0
BBX 3 5 1 -5
BITMAP
20
40
80
40
20
ENDCHAR
STARTCHAR 061
ENCODING 61
SWIDTH 432 0
DWIDTH 6 0
BBX 3 3 1 -4
BITMAP
E0
00
E0
ENDCHAR
STARTCHAR 062
ENCODING 62
SWIDTH 432 0
DWIDTH 6 0
BBX 3 5 1 -5
BITMAP
80
40
20
40
80
ENDCHAR
STARTCHAR 063
ENCODING 63
SWIDTH 432 0
DWIDTH 6 0
BBX 5 5 0 -5
BITMAP
70
88
30
00
20
ENDCHAR
STARTCHAR 064
ENCODING 64
SWIDTH 432 0
DWIDTH 6 0
BBX 5 5 0 -5
BITMAP
70
88
B8
B8
40
ENDCHAR
STARTCHAR 065
ENCODING 65
SWIDTH 432 0
DWIDTH 6 0
BBX 5 5 0 -5
BITMAP
20
50
88
F8
88
ENDCHAR
STARTCHAR 066
ENCODING 66
SWIDTH 432 0
DWIDTH 6 0
BBX 5 5 0 -5
BITMAP
F0
88
F0
88
F0
ENDCHAR
STARTCHAR 067
ENCODING 67
SWIDTH 432 0
DWIDTH 6 0
BBX 4 5 0 -5
BITMAP
70
80
80
80
70
ENDCHAR
STARTCHAR 068
ENCODING 68
SWIDTH 432 0
DWIDTH 6 0
BBX 5 5 0 -5
BITMAP
F0
88
88
88
F0
ENDCHAR
STARTCHAR 069
ENCODING 69
SWIDTH 432 0
DWIDTH 6 0
BBX 5 5 0 -5
BITMAP
F8
80
E0
80
F8
ENDCHAR
STARTCHAR 070
ENCODING 70
SWIDTH 432 0
DWIDTH 6 0
BBX 5 5 0 -5
BITMAP
F8
80
E0
80
80
ENDCHAR
STARTCHAR 071
ENCODING 71
SWIDTH 432 0
DWIDTH 6 0
BBX 5 5 0 -5
BITMAP
70
80
B8
88
70
ENDCHAR
STARTCHAR 072
ENCODING 72
SWIDTH 432 0
DWIDTH 6 0
BBX 5 5 0 -5
BITMAP
88
88
F8
88
88
ENDCHAR
STARTCHAR 073
ENCODING 73
SWIDTH 432 0
DWIDTH 6 0
BBX 3 5 1 -5
BITMAP
E0
40
40
40
E0
ENDCHAR
STARTCHAR 074
ENCODING 74
SWIDTH 432 0
DWIDTH 6 0
BBX 4 5 0 -5
BITMAP
70
20
20
A0
60
ENDCHAR
STARTCHAR 075
ENCODING 75
SWIDTH 432 0
DWIDTH 6 0
BBX 5 5 0 -5
BITMAP
88
90
A0
D0
88
ENDCHAR
STARTCHAR 076
ENCODING 76
SWIDTH 432 0
DWIDTH 6 0
BBX 5 5 0 -5
BITMAP
80
80
80
80
F8
ENDCHAR
STARTCHAR 077
ENCODING 77
SWIDTH 432 0
DWIDTH 6 0
BBX 5 5 0 -5
BITMAP
88
D8
A8
88
88
ENDCHAR
STARTCHAR 078
ENCODING 78
SWIDTH 432 0
DWIDTH 6 0
BBX 5 5 0 -5
BITMAP
88
C8
A8
98
88
ENDCHAR
STARTCHAR 079
ENCODING 79
SWIDTH 432 0
DWIDTH 6 0
BBX 5 5 0 -5
BITMAP
70
88
88
88
70
ENDCHAR
STARTCHAR 080
ENCODING 80
SWIDTH 432 0
DWIDTH 6 0
BBX 5 5 0 -5
BITMAP
F0
88
F0
80
80
ENDCHAR
STARTCHAR 081
ENCODING 81
SWIDTH 432 0
DWIDTH 6 0
BBX 5 5 0 -5
BITMAP
60
90
90
B0
68
ENDCHAR
STARTCHAR 082
ENCODING 82
SWIDTH 432 0
DWIDTH 6 0
BBX 5 5 0 -5
BITMAP
F0
88
F0
90
88
ENDCHAR
STARTCHAR 083
ENCODING 83
SWIDTH 432 0
DWIDTH 6 0
BBX 5 5 0 -5
BITMAP
78
80
70
08
F0
ENDCHAR
STARTCHAR 084
ENCODING 84
SWIDTH 432 0
DWIDTH 6 0
BBX 5 5 0 -5
BITMAP
F8
20
20
20
20
ENDCHAR
STARTCHAR 085
ENCODING 85
SWIDTH 432 0
DWIDTH 6 0
BBX 5 5 0 -5
BITMAP
88
88
88
88
70
ENDCHAR
STARTCHAR 086
ENCODING 86
SWIDTH 432 0
DWIDTH 6 0
BBX 5 5 0 -5
BITMAP
88
88
88
50
20
ENDCHAR
STARTCHAR 087
ENCODING 87
SWIDTH 432 0
DWIDTH 6 0
BBX 5 5 0 -5
BITMAP
88
88
A8
A8
50
ENDCHAR
STARTCHAR 088
ENCODING 88
SWIDTH 432 0
DWIDTH 6 0
BBX 5 5 0 -5
BITMAP
88
50
20
50
88
ENDCHAR
STARTCHAR 089
ENCODING 89
SWIDTH 432 0
DWIDTH 6 0
BBX 5 5 0 -5
BITMAP
88
50
20
20
20
ENDCHAR
STARTCHAR 090
ENCODING 90
SWIDTH 432 0
DWIDTH 6 0
BBX 5 5 0 -5
BITMAP
F8
10
20
40
F8
ENDCHAR
STARTCHAR 091
ENCODING 91
SWIDTH 432 0
DWIDTH 6 0
BBX 2 5 2 -5
BITMAP
C0
80
80
80
C0
ENDCHAR
STARTCHAR 092
ENCODING 92
SWIDTH 432 0
DWIDTH 6 0
BBX 5 3 0 -4
BITMAP
88
50
20
ENDCHAR
STARTCHAR 093
ENCODING 93
SWIDTH 432 0
DWIDTH 6 0
BBX 2 5 1 -5
BITMAP
C0
40
40
40
C0
ENDCHAR
STARTCHAR 094
ENCODING 94
SWIDTH 432 0
DWIDTH 6 0
BBX 5 3 0 -4
BITMAP
20
50
88
ENDCHAR
STARTCHAR 095
ENCODING 95
SWIDTH 432 0
DWIDTH 6 0
BBX 5 1 0 -5
BITMAP
F8
ENDCHAR
STARTCHAR 096
ENCODING 96
SWIDTH 432 0
DWIDTH 6 0
BBX 2 2 2 -2
BITMAP
80
40
ENDCHAR
STARTCHAR 097
ENCODING 97
SWIDTH 432 0
DWIDTH 6 0
BBX 5 5 0 -5
BITMAP
C0
40
70
48
70
ENDCHAR
STARTCHAR 098
ENCODING 98
SWIDTH 432 0
DWIDTH 6 0
BBX 5 5 0 -5
BITMAP
F8
80
F0
88
F0
ENDCHAR
STARTCHAR 099
ENCODING 99
SWIDTH 432 0
DWIDTH 6 0
BBX 5 5 0 -5
BITMAP
90
90
90
F8
08
ENDCHAR
STARTCHAR 100
ENCODING 100
SWIDTH 432 0
DWIDTH 6 0
BBX 5 5 0 -5
BITMAP
30
50
50
F8
88
ENDCHAR
STARTCHAR 101
ENCODING 101
SWIDTH 0 0
DWIDTH 0 0
BBX 0 0 0 0
BITMAP
ENDCHAR
STARTCHAR 102
ENCODING 102
SWIDTH 432 0
DWIDTH 6 0
BBX 5 5 0 -5
BITMAP
20
70
A8
70
20
ENDCHAR
STARTCHAR 103
ENCODING 103
SWIDTH 432 0
DWIDTH 6 0
BBX 5 5 0 -5
BITMAP
F8
80
80
80
80
ENDCHAR
STARTCHAR 104
ENCODING 104
SWIDTH 0 0
DWIDTH 0 0
BBX 0 0 0 0
BITMAP
ENDCHAR
STARTCHAR 105
ENCODING 105
SWIDTH 432 0
DWIDTH 6 0
BBX 5 5 0 -5
BITMAP
88
98
A8
C8
88
ENDCHAR
STARTCHAR 106
ENCODING 106
SWIDTH 432 0
DWIDTH 6 0
BBX 5 5 0 -5
BITMAP
30
88
98
A8
C8
ENDCHAR
STARTCHAR 107
ENCODING 107
SWIDTH 0 0
DWIDTH 0 0
BBX 0 0 0 0
BITMAP
ENDCHAR
STARTCHAR 108
ENCODING 108
SWIDTH 432 0
DWIDTH 6 0
BBX 5 5 0 -5
BITMAP
20
50
50
50
88
ENDCHAR
STARTCHAR 109
ENCODING 109
SWIDTH 0 0
DWIDTH 0 0
BBX 0 0 0 0
BITMAP
ENDCHAR
STARTCHAR 110
ENCODING 110
SWIDTH 0 0
DWIDTH 0 0
BBX 0 0 0 0
BITMAP
ENDCHAR
STARTCHAR 111
ENCODING 111
SWIDTH 0 0
DWIDTH 0 0
BBX 0 0 0 0
BITMAP
ENDCHAR
STARTCHAR 112
ENCODING 112
SWIDTH 432 0
DWIDTH 6 0
BBX 5 5 0 -5
BITMAP
F8
88
88
88
88
ENDCHAR
STARTCHAR 113
ENCODING 113
SWIDTH 432 0
DWIDTH 6 0
BBX 5 5 0 -5
BITMAP
78
88
78
88
88
ENDCHAR
STARTCHAR 114
ENCODING 114
SWIDTH 0 0
DWIDTH 0 0
BBX 0 0 0 0
BITMAP
ENDCHAR
STARTCHAR 115
ENCODING 115
SWIDTH 432 0
DWIDTH 6 0
BBX 5 5 0 -5
BITMAP
88
A8
A8
A8
F8
ENDCHAR
STARTCHAR 116
ENCODING 116
SWIDTH 0 0
DWIDTH 0 0
BBX 0 0 0 0
BITMAP
ENDCHAR
STARTCHAR 117
ENCODING 117
SWIDTH 432 0
DWIDTH 6 0
BBX 5 5 0 -5
BITMAP
90
A8
E8
A8
90
ENDCHAR
STARTCHAR 118
ENCODING 118
SWIDTH 432 0
DWIDTH 6 0
BBX 5 5 0 -5
BITMAP
A8
A8
70
A8
A8
ENDCHAR
STARTCHAR 119
ENCODING 119
SWIDTH 0 0
DWIDTH 0 0
BBX 0 0 0 0
BITMAP
ENDCHAR
STARTCHAR 120
ENCODING 120
SWIDTH 0 0
DWIDTH 0 0
BBX 0 0 0 0
BITMAP
ENDCHAR
STARTCHAR 121
ENCODING 121
SWIDTH 432 0
DWIDTH 6 0
BBX 5 5 0 -5
BITMAP
88
50
20
40
80
ENDCHAR
STARTCHAR 122
ENCODING 122
SWIDTH 432 0
DWIDTH 6 0
BBX 5 5 0 -5
BITMAP
70
88
30
88
70
ENDCHAR
ENDFONT
